

The Samaritan 2012 DVDrip ac3 DiVERSiTY

Complete name                    : The Samaritan 2012 DVDrip ac3 DiVERSiTY
Format                           : AVI
Format/Info                      : Audio Video Interleave
File size                        : 1.37 GiB
Duration                         : 1h 29mn
Overall bit rate                 : 2 193 Kbps
Source                           : DVDR LEGEND-RG
Encoder                          : chris25867
 
http://www.imdb.com/title/tt1867093/

Video

Format                           : MPEG-4 Visual
Format profile                   : Advanced Simple@L5
Format settings, BVOP            : Yes
Format settings, QPel            : No
Format settings, GMC             : No warppoints
Format settings, Matrix          : Default (H.263)
Codec ID                         : XVID
Codec ID/Hint                    : XviD
Duration                         : 1h 29mn
Bit rate                         : 1 737 Kbps
Width                            : 720 pixels
Height                           : 400 pixels
Display aspect ratio             : 16:9
Frame rate                       : 25.000 fps
Color space                      : YUV
Chroma subsampling               : 4:2:0
Bit depth                        : 8 bits
Scan type                        : Progressive
Compression mode                 : Lossy
Bits/(Pixel*Frame)               : 0.241
Stream size                      : 1.08 GiB (79%)
Writing library                  : XviD 1.2.1 (UTC 2008-12-04)

Audio

Format                           : AC-3
Format/Info                      : Audio Coding 3
Mode extension                   : CM (complete main)
Codec ID                         : 2000
Duration                         : 1h 29mn
Bit rate mode                    : Constant
Bit rate                         : 448 Kbps
Channel(s)                       : 6 channels
Channel positions                : Front: L C R, Side: L R, LFE
Sampling rate                    : 48.0 KHz
Bit depth                        : 16 bits
Compression mode                 : Lossy
Stream size                      : 286 MiB (20%)
Alignment                        : Aligned on interleaves
Interleave, duration             : 64 ms (1.60 video frames)
Interleave, preload duration     : 192 ms

Samuel L. Jackson                : Foley
Luke Kirby                       : Ethan
Ruth Negga                       : Iris
Tom Wilkinson                    : Xavier    
     
After twenty years in prison, Foley is finished with the grifter's life. 
When he meets an elusive young woman named Iris, the possibility of a new 
start looks real. But his past is proving to be a stubborn companion.    
   
Enjoy

Dont forget to thank the uploader 

Greets to:

*THC*,ViSiON ,LEGi0N,Rx ,Hibees,Noir
,ELEKTRI4KA ,KART3LDVD ,202122 ,Zia ,Smelly


All the people that make p2p what it is...THANKS 

[img]http://img51.imageshack.us/img51/9987/12ncrun5.png[/img]
[img]http://img441.imageshack.us/img441/3353/50lfzq4m.png[/img]
[img]http://img826.imageshack.us/img826/2377/78btqiyn.png[/img]